<?xml version="1.0" encoding="UTF-8"?>
<!DOCTYPE svg PUBLIC "-//W3C//DTD SVG 1.1//EN" "http://www.w3.org/Graphics/SVG/1.1/DTD/svg11.dtd">
<svg xmlns="http://www.w3.org/2000/svg" version="1.1" width="512px" height="512px" style="shape-rendering:geometricPrecision; text-rendering:geometricPrecision; image-rendering:optimizeQuality; fill-rule:evenodd; clip-rule:evenodd" xmlns:xlink="http://www.w3.org/1999/xlink">
<g><path style="opacity:0.969" fill="#000000" d="M 193.5,175.5 C 203.36,173.35 210.527,176.683 215,185.5C 221.212,211.352 227.879,237.018 235,262.5C 245.056,235.389 255.389,208.389 266,181.5C 272.945,174.931 280.778,173.764 289.5,178C 292.106,179.938 293.939,182.438 295,185.5C 302.667,216.167 310.333,246.833 318,277.5C 325.461,265.409 333.294,253.576 341.5,242C 342.833,241.333 344.167,240.667 345.5,240C 358.833,239.667 372.167,239.333 385.5,239C 396.246,214.627 414.913,204.293 441.5,208C 469.921,216.654 482.421,235.82 479,265.5C 472.472,289.866 456.639,302.533 431.5,303.5C 409.537,302.706 394.203,292.206 385.5,272C 377.147,271.168 368.813,271.335 360.5,272.5C 348.667,291.5 336.833,310.5 325,329.5C 318.055,336.069 310.222,337.236 301.5,333C 298.894,331.062 297.061,328.562 296,325.5C 289.788,299.648 283.121,273.982 276,248.5C 265.944,275.611 255.611,302.611 245,329.5C 238.055,336.069 230.222,337.236 221.5,333C 218.894,331.062 217.061,328.562 216,325.5C 208.333,294.833 200.667,264.167 193,233.5C 186.333,244.167 179.667,254.833 173,265.5C 171.062,268.106 168.562,269.939 165.5,271C 152.167,271.333 138.833,271.667 125.5,272C 111.772,300.365 89.7723,309.698 59.5,300C 33.8264,285.329 25.6598,263.829 35,235.5C 49.6705,209.826 71.1705,201.66 99.5,211C 111.642,217.14 120.308,226.474 125.5,239C 133.853,239.832 142.187,239.665 150.5,238.5C 162.333,219.5 174.167,200.5 186,181.5C 188.114,178.879 190.614,176.879 193.5,175.5 Z M 74.5,240.5 C 91.7649,240.257 97.5982,248.257 92,264.5C 85.7488,271.011 78.5821,272.177 70.5,268C 63.9893,261.749 62.8227,254.582 67,246.5C 69.1141,243.879 71.6141,241.879 74.5,240.5 Z M 426.5,240.5 C 443.765,240.257 449.598,248.257 444,264.5C 437.749,271.011 430.582,272.177 422.5,268C 415.989,261.749 414.823,254.582 419,246.5C 421.114,243.879 423.614,241.879 426.5,240.5 Z"/></g>
</svg>
